<svg width="85" height="76" viewBox="0 0 85 76" fill="none" xmlns="http://www.w3.org/2000/svg">
<g clip-path="url(#clip0_3_23)">
<path d="M69.8871 24.6079C69.0053 24.3032 68.0916 24.0149 67.1508 23.7422C67.3055 23.1087 67.4474 22.4834 67.5735 21.8687C69.6448 11.775 68.2906 3.64342 63.6661 0.966164C59.2318 -1.60097 51.9799 1.07568 44.6559 7.47459C43.9516 8.08991 43.2453 8.74137 42.5393 9.42413C42.069 8.9724 41.5993 8.53586 41.1309 8.11831C33.4551 1.27618 25.7612 -1.60719 21.1413 1.07781C16.7113 3.65238 15.3993 11.2968 17.2638 20.8627C17.4439 21.7866 17.6543 22.7302 17.8923 23.6895C16.8034 23.9999 15.7522 24.3307 14.7463 24.6826C5.74724 27.8324 0 32.7689 0 37.8893C0 43.1778 6.16966 48.4821 15.5429 51.6985C16.2826 51.9523 17.0502 52.1923 17.8412 52.4201C17.5844 53.4577 17.3611 54.4744 17.1736 55.4661C15.3959 64.866 16.7842 72.3298 21.2024 74.8881C25.766 77.5302 33.4251 74.8145 40.8831 68.2697C41.4725 67.7524 42.0641 67.2038 42.6567 66.6287C43.4249 67.3713 44.1918 68.0741 44.9547 68.7333C52.1786 74.9741 59.3134 77.4942 63.7275 74.9287C68.2866 72.2791 69.7683 64.2612 67.8447 54.506C67.6978 53.761 67.5268 52.9999 67.3348 52.2252C67.8727 52.0656 68.4007 51.9008 68.9156 51.7294C78.66 48.4882 85 43.2484 85 37.8893C85 32.7504 79.0674 27.7806 69.8871 24.6079ZM67.7736 48.2692C67.3088 48.4237 66.8319 48.573 66.3459 48.7177C65.2702 45.2988 63.8183 41.6632 62.0416 37.9071C63.7371 34.2404 65.1328 30.6514 66.1784 27.2546C67.0479 27.5072 67.8919 27.7736 68.7051 28.0548C76.5708 30.7732 81.3688 34.7924 81.3688 37.8893C81.3688 41.1881 76.1871 45.4704 67.7736 48.2692ZM64.2825 55.214C65.1331 59.5276 65.2546 63.4276 64.6912 66.4764C64.1849 69.2159 63.1668 71.0424 61.908 71.7739C59.2293 73.3305 53.5008 71.3071 47.3228 65.9699C46.6146 65.3581 45.9012 64.7048 45.1856 64.0134C47.5806 61.3837 49.9743 58.3266 52.3105 54.9313C56.4196 54.5653 60.3018 53.9668 63.8224 53.1498C63.9958 53.852 64.1498 54.5407 64.2825 55.214ZM28.9784 71.5049C26.3613 72.4328 24.2768 72.4594 23.0168 71.73C20.3356 70.1775 19.221 64.1848 20.7414 56.146C20.9156 55.2254 21.1228 54.2797 21.3617 53.3131C24.8437 54.0861 28.6975 54.6423 32.8164 54.9775C35.1684 58.2999 37.6312 61.3536 40.1131 64.0275C39.5709 64.5531 39.0307 65.0534 38.4936 65.5249C35.1957 68.4189 31.8909 70.4722 28.9784 71.5049ZM16.7173 48.249C12.5726 46.8268 9.1498 44.9784 6.80361 42.9615C4.69541 41.1489 3.63102 39.3495 3.63102 37.8893C3.63102 34.7821 8.24548 30.8188 15.9416 28.1249C16.8754 27.7981 17.853 27.49 18.8674 27.2007C19.9311 30.6742 21.3263 34.3057 23.0101 37.978C21.3045 41.7049 19.8894 45.3943 18.8154 48.9085C18.0922 48.6998 17.3915 48.4802 16.7173 48.249ZM20.8273 20.1626C19.2299 11.9668 20.2908 5.78418 22.9605 4.23276C25.8042 2.58002 32.0923 4.93647 38.7198 10.8443C39.1434 11.2219 39.5687 11.6171 39.9952 12.026C37.5256 14.6883 35.0853 17.7191 32.7542 21.0219C28.7566 21.3938 24.93 21.9914 21.4117 22.7916C21.1905 21.8983 20.9945 21.0206 20.8273 20.1626ZM57.4925 29.2517C56.6514 27.7932 55.788 26.3692 54.9077 24.9841C57.6198 25.3283 60.2182 25.7852 62.6583 26.3443C61.9257 28.7014 61.0126 31.1658 59.9378 33.6922C59.1668 32.2227 58.3513 30.741 57.4925 29.2517ZM42.5405 14.6313C44.2154 16.4529 45.8927 18.4868 47.5425 20.6935C45.88 20.6146 44.197 20.5736 42.5 20.5736C40.8191 20.5736 39.1484 20.6137 37.4962 20.6912C39.1477 18.505 40.8395 16.4739 42.5405 14.6313ZM27.4928 29.2769C26.6527 30.7395 25.8523 32.2131 25.0934 33.6895C24.0359 31.1719 23.1313 28.6962 22.3924 26.3057C24.8176 25.7609 27.4037 25.3154 30.0985 24.9777C29.2058 26.3756 28.3352 27.8104 27.4928 29.2769ZM30.1761 51.061C27.3919 50.7491 24.7669 50.3266 22.3423 49.7968C23.093 47.3636 24.0176 44.8351 25.0975 42.2632C25.8583 43.7385 26.6619 45.2128 27.5072 46.6786C28.3682 48.1718 29.2604 49.6345 30.1761 51.061ZM42.641 61.4044C40.92 59.5402 39.2034 57.4781 37.5268 55.26C39.1543 55.3241 40.8136 55.3569 42.5 55.3569C44.2325 55.3569 45.9452 55.3177 47.631 55.2424C45.9758 57.5004 44.3045 59.5657 42.641 61.4044ZM59.9724 42.1321C61.1085 44.7318 62.0663 47.2471 62.8267 49.6388C60.3622 50.2032 57.7013 50.6578 54.8977 50.9957C55.7801 49.5919 56.6511 48.1434 57.507 46.6535C58.3729 45.1461 59.1951 43.6365 59.9724 42.1321ZM54.3617 44.8323C53.033 47.1452 51.6689 49.3531 50.284 51.4372C47.7617 51.6183 45.1559 51.7115 42.5 51.7115C39.8548 51.7115 37.2819 51.629 34.8042 51.4676C33.3635 49.3561 31.9698 47.1417 30.6495 44.8522C29.3328 42.569 28.1212 40.2664 27.023 37.9768C28.1209 35.6819 29.3296 33.3768 30.6388 31.0976L30.6385 31.0981C31.9511 28.8129 33.3327 26.6092 34.76 24.511C37.2879 24.3191 39.8801 24.219 42.4998 24.219C45.1314 24.219 47.7271 24.3199 50.2542 24.5134C51.6598 26.5963 53.0319 28.7928 54.3497 31.0783C55.6825 33.3895 56.9068 35.6793 58.014 37.925C56.9102 40.2093 55.6886 42.5222 54.3617 44.8323ZM61.8523 4.12431C64.6987 5.77219 65.8056 12.4181 64.0173 21.1329C63.9032 21.689 63.7747 22.2554 63.6352 22.8294C60.1088 22.0125 56.2794 21.4046 52.2701 21.027C49.9345 17.688 47.5142 14.6524 45.0848 12.0244C45.7379 11.3936 46.3902 10.7921 47.0397 10.2244C53.315 4.7419 59.1801 2.57728 61.8523 4.12431ZM42.5 30.2694C46.6919 30.2694 50.0902 33.6809 50.0902 37.8893C50.0902 42.0977 46.6919 45.5093 42.5 45.5093C38.3081 45.5093 34.9098 42.0977 34.9098 37.8893C34.9098 33.6809 38.3081 30.2694 42.5 30.2694Z" fill="#00D8FF"/>
</g>
<defs>
<clipPath id="clip0_3_23">
<rect width="85" height="76" fill="white"/>
</clipPath>
</defs>
</svg>
