<svg width="71" height="64" viewBox="0 0 71 64" fill="none" xmlns="http://www.w3.org/2000/svg">
<g clip-path="url(#clip0_11_48)">
<path d="M58.3741 20.4987C57.6396 20.2448 56.8785 20.0047 56.0948 19.7776C56.2236 19.2498 56.3418 18.7289 56.4469 18.2169C58.1723 9.80869 57.0442 3.03501 53.192 0.804826C49.4982 -1.33362 43.4573 0.896054 37.3562 6.22643C36.7695 6.73899 36.1812 7.28167 35.5931 7.85041C35.2013 7.47412 34.8101 7.11048 34.4199 6.76265C28.0258 1.06307 21.6167 -1.33881 17.7683 0.897825C14.078 3.04247 12.9852 9.41038 14.5383 17.3789C14.6883 18.1485 14.8636 18.9345 15.0618 19.7337C14.1548 19.9922 13.2791 20.2677 12.4412 20.5609C4.94487 23.1847 0.157349 27.2969 0.157349 31.5623C0.157349 35.9676 5.29675 40.3862 13.1048 43.0654C13.721 43.2769 14.3603 43.4768 15.0192 43.6666C14.8054 44.5309 14.6193 45.3779 14.4632 46.204C12.9823 54.0342 14.1388 60.2516 17.8192 62.3827C21.6208 64.5836 28.0009 62.3214 34.2134 56.8695C34.7045 56.4386 35.1973 55.9815 35.6909 55.5025C36.3308 56.1211 36.9697 56.7066 37.6051 57.2557C43.6227 62.4543 49.5661 64.5536 53.2431 62.4165C57.0409 60.2094 58.2752 53.5303 56.6728 45.4042C56.5504 44.7836 56.408 44.1495 56.248 43.5042C56.6961 43.3713 57.1359 43.234 57.5648 43.0913C65.682 40.3913 70.9634 36.0264 70.9634 31.5623C70.9634 27.2814 66.0215 23.1416 58.3741 20.4987ZM56.6135 40.2088C56.2264 40.3375 55.8291 40.4619 55.4243 40.5825C54.5282 37.7344 53.3188 34.706 51.8388 31.5771C53.2511 28.5227 54.4137 25.533 55.2848 22.7034C56.0091 22.9138 56.7121 23.1358 57.3895 23.37C63.9418 25.6344 67.9386 28.9825 67.9386 31.5623C67.9386 34.3102 63.6222 37.8774 56.6135 40.2088ZM53.7054 45.9939C54.414 49.5872 54.5152 52.8359 54.0459 55.3756C53.6241 57.6577 52.7761 59.1792 51.7275 59.7885C49.496 61.0852 44.7241 59.3997 39.5778 54.9538C38.9878 54.4441 38.3936 53.8999 37.7975 53.324C39.7926 51.1334 41.7865 48.5867 43.7326 45.7585C47.1556 45.4535 50.3895 44.955 53.3222 44.2744C53.4666 44.8594 53.5949 45.433 53.7054 45.9939ZM24.2967 59.5644C22.1166 60.3374 20.3802 60.3595 19.3306 59.752C17.0972 58.4587 16.1687 53.4667 17.4352 46.7703C17.5803 46.0034 17.7529 45.2157 17.9519 44.4104C20.8525 45.0543 24.0627 45.5177 27.4938 45.7969C29.453 48.5645 31.5046 51.1083 33.572 53.3357C33.1203 53.7735 32.6704 54.1903 32.223 54.583C29.4758 56.9938 26.7229 58.7042 24.2967 59.5644ZM14.0831 40.192C10.6305 39.0073 7.77924 37.4676 5.82483 35.7874C4.06868 34.2776 3.18203 32.7786 3.18203 31.5623C3.18203 28.9739 7.02594 25.6724 13.4369 23.4284C14.2148 23.1561 15.0291 22.8995 15.8741 22.6585C16.7602 25.5519 17.9224 28.5771 19.3251 31.6362C17.9043 34.7407 16.7255 37.814 15.8308 40.7414C15.2283 40.5675 14.6447 40.3846 14.0831 40.192ZM17.5068 16.7957C16.1761 9.96849 17.0599 4.8183 19.2837 3.52594C21.6525 2.14919 26.8906 4.11214 32.4114 9.03345C32.7643 9.348 33.1186 9.67722 33.4739 10.0178C31.4166 12.2355 29.3838 14.7602 27.442 17.5115C24.112 17.8213 20.9243 18.3191 17.9935 18.9856C17.8093 18.2415 17.646 17.5104 17.5068 16.7957ZM48.0493 24.367C47.3487 23.1521 46.6294 21.9659 45.8961 20.8121C48.1553 21.0988 50.3198 21.4794 52.3525 21.9451C51.7422 23.9086 50.9816 25.9615 50.0863 28.066C49.444 26.8419 48.7647 25.6076 48.0493 24.367ZM35.5941 12.188C36.9893 13.7055 38.3865 15.3997 39.7608 17.2379C38.3759 17.1722 36.9739 17.1381 35.5604 17.1381C34.1601 17.1381 32.7685 17.1715 31.3922 17.236C32.7678 15.4149 34.1771 13.723 35.5941 12.188ZM23.0592 24.388C22.3593 25.6063 21.6926 26.8339 21.0604 28.0638C20.1796 25.9666 19.426 23.9043 18.8105 21.913C20.8307 21.4591 22.985 21.088 25.2297 20.8068C24.4861 21.9712 23.761 23.1664 23.0592 24.388ZM25.2944 42.5344C22.9751 42.2746 20.7884 41.9226 18.7688 41.4813C19.3941 39.4545 20.1643 37.3481 21.0638 35.2058C21.6977 36.4347 22.367 37.6628 23.0712 38.8838C23.7884 40.1277 24.5316 41.3462 25.2944 42.5344ZM35.6778 51.1506C34.2442 49.5977 32.8142 47.88 31.4176 46.0323C32.7734 46.0857 34.1556 46.113 35.5604 46.113C37.0036 46.113 38.4303 46.0803 39.8345 46.0176C38.4557 47.8986 37.0636 49.619 35.6778 51.1506ZM50.1151 35.0966C51.0615 37.2621 51.8593 39.3574 52.4927 41.3497C50.4398 41.8199 48.2232 42.1986 45.8878 42.48C46.6228 41.3106 47.3484 40.104 48.0614 38.8629C48.7827 37.6073 49.4676 36.3497 50.1151 35.0966ZM45.4413 37.3459C44.3344 39.2725 43.1981 41.1117 42.0445 42.8478C39.9434 42.9986 37.7728 43.0763 35.5604 43.0763C33.3569 43.0763 31.2136 43.0076 29.1497 42.8731C27.9496 41.1143 26.7885 39.2696 25.6888 37.3624C24.5919 35.4605 23.5826 33.5424 22.6679 31.6352C23.5824 29.7234 24.5892 27.8032 25.6798 25.9047L25.6796 25.9051C26.773 24.0015 27.9238 22.1658 29.1128 20.4179C31.2186 20.2581 33.378 20.1747 35.5602 20.1747C37.7523 20.1747 39.9146 20.2588 42.0197 20.42C43.1906 22.155 44.3336 23.9848 45.4313 25.8886C46.5415 27.8139 47.5614 29.7213 48.4837 31.592C47.5642 33.4949 46.5466 35.4215 45.4413 37.3459ZM51.6811 3.4356C54.0522 4.8083 54.9742 10.3444 53.4845 17.604C53.3895 18.0672 53.2825 18.539 53.1663 19.0171C50.2287 18.3367 47.0388 17.8303 43.699 17.5158C41.7534 14.7343 39.7372 12.2056 37.7135 10.0164C38.2576 9.49098 38.8009 8.98992 39.342 8.51709C44.5694 3.95006 49.4551 2.14691 51.6811 3.4356ZM35.5604 25.2147C39.0522 25.2147 41.8831 28.0566 41.8831 31.5623C41.8831 35.0679 39.0522 37.9098 35.5604 37.9098C32.0685 37.9098 29.2376 35.0679 29.2376 31.5623C29.2376 28.0566 32.0685 25.2147 35.5604 25.2147Z" fill="white"/>
</g>
<defs>
<clipPath id="clip0_11_48">
<rect width="70.806" height="63.3089" fill="white" transform="translate(0.157349)"/>
</clipPath>
</defs>
</svg>
