<svg width="64" height="64" viewBox="0 0 64 64" fill="none" xmlns="http://www.w3.org/2000/svg">
<path d="M4.94601 0H58.3629C61.0945 0 63.3089 2.2144 63.3089 4.94601V58.3629C63.3089 61.0945 61.0945 63.3089 58.3629 63.3089H4.94601C2.2144 63.3089 0 61.0945 0 58.3629V4.94601C0 2.2144 2.2144 0 4.94601 0Z" fill="white"/>
<path d="M37.2232 49.5775V56.408C38.3341 56.9773 39.648 57.4041 41.1647 57.6887C42.6814 57.9734 44.2799 58.1156 45.9606 58.1156C47.5982 58.1156 49.1542 57.959 50.6281 57.646C52.102 57.3329 53.3947 56.817 54.5053 56.0986C55.6162 55.3799 56.4956 54.4407 57.1437 53.2809C57.7917 52.1213 58.1156 50.6877 58.1156 48.9801C58.1156 47.7421 57.9304 46.6569 57.5602 45.7248C57.19 44.7928 56.6558 43.9638 55.9579 43.2382C55.2603 42.5124 54.4234 41.8615 53.4481 41.285C52.4725 40.7088 51.3722 40.1645 50.1474 39.6524C49.2502 39.2822 48.4457 38.9231 47.7335 38.5744C47.0215 38.2257 46.4161 37.8701 45.9178 37.507C45.4192 37.1443 45.0347 36.7599 44.7641 36.3544C44.4936 35.9488 44.3583 35.4901 44.3583 34.9777C44.3583 34.508 44.4792 34.0849 44.7213 33.7078C44.9634 33.3306 45.3055 33.0069 45.7469 32.7366C46.1883 32.4661 46.7294 32.2564 47.3704 32.1067C48.0112 31.9574 48.7234 31.8827 49.5066 31.8827C50.0764 31.8827 50.6781 31.9255 51.3116 32.0108C51.9455 32.0961 52.5828 32.2277 53.2238 32.4057C53.8645 32.5835 54.4875 32.8076 55.0929 33.0781C55.698 33.3484 56.2572 33.6615 56.7698 34.0171V27.6351C55.7302 27.2367 54.5943 26.9414 53.3625 26.7492C52.1307 26.5571 50.7171 26.4611 49.1221 26.4611C47.4985 26.4611 45.9606 26.6355 44.5079 26.9842C43.0553 27.3326 41.777 27.8769 40.6733 28.6168C39.5696 29.357 38.6973 30.2997 38.0563 31.4452C37.4156 32.5907 37.0951 33.9603 37.0951 35.5541C37.0951 37.5889 37.6824 39.3249 38.8576 40.7623C40.0325 42.1993 41.8161 43.416 44.2087 44.4122C45.1487 44.7965 46.0246 45.1734 46.8363 45.5436C47.6481 45.9135 48.3495 46.2976 48.9405 46.696C49.5316 47.0944 49.998 47.5284 50.3398 47.998C50.6815 48.4676 50.8524 49.0013 50.8524 49.599C50.8524 50.04 50.7456 50.4493 50.5319 50.8264C50.3185 51.2033 49.9943 51.5307 49.56 51.8082C49.1258 52.0856 48.5844 52.3025 47.9365 52.4591C47.2886 52.6156 46.5301 52.694 45.6613 52.694C44.1802 52.694 42.7135 52.4343 41.2609 51.9148C39.808 51.3954 38.4622 50.6164 37.2232 49.5775ZM25.8385 32.5798H34.6221V26.9557H10.1393V32.5798H18.8801V57.621H25.8385V32.5798Z" fill="#030515"/>
</svg>
