<svg width="76" height="76" viewBox="0 0 76 76" fill="none" xmlns="http://www.w3.org/2000/svg">
<g clip-path="url(#clip0_3_27)">
<path d="M5.9375 0H70.0625C73.3417 0 76 2.65831 76 5.9375V70.0625C76 73.3417 73.3417 76 70.0625 76H5.9375C2.65831 76 0 73.3417 0 70.0625V5.9375C0 2.65831 2.65831 0 5.9375 0Z" fill="#3178C6"/>
<path d="M44.685 59.516V67.7157C46.0186 68.3991 47.5959 68.9115 49.4166 69.2532C51.2374 69.5949 53.1564 69.7656 55.1739 69.7656C57.1398 69.7656 59.0078 69.5777 60.7771 69.2019C62.5465 68.826 64.0983 68.2067 65.4315 67.3443C66.7651 66.4816 67.8208 65.3541 68.5989 63.9617C69.3767 62.5697 69.7656 60.8487 69.7656 58.7988C69.7656 57.3126 69.5433 56.0099 69.0988 54.891C68.6544 53.7721 68.0132 52.777 67.1754 51.9059C66.3379 51.0346 65.3333 50.2532 64.1624 49.5612C62.9912 48.8695 61.6704 48.2161 60.2 47.6012C59.123 47.1568 58.1572 46.7257 57.3022 46.3072C56.4475 45.8886 55.7208 45.4617 55.1226 45.0258C54.5241 44.5903 54.0624 44.129 53.7376 43.6421C53.4129 43.1552 53.2505 42.6045 53.2505 41.9894C53.2505 41.4256 53.3956 40.9177 53.6863 40.465C53.9769 40.0122 54.3875 39.6236 54.9174 39.2991C55.4473 38.9743 56.0969 38.7226 56.8664 38.543C57.6356 38.3637 58.4906 38.274 59.4308 38.274C60.1148 38.274 60.8371 38.3254 61.5977 38.4278C62.3586 38.5302 63.1236 38.6882 63.8931 38.9019C64.6623 39.1154 65.4102 39.3843 66.1369 39.7091C66.8634 40.0336 67.5346 40.4094 68.15 40.8363V33.1749C66.902 32.6966 65.5384 32.3422 64.0597 32.1115C62.581 31.8808 60.884 31.7656 58.9692 31.7656C57.0202 31.7656 55.1739 31.9749 53.4301 32.3935C51.6862 32.8118 50.1517 33.4652 48.8267 34.3535C47.5018 35.242 46.4547 36.3737 45.6852 37.7488C44.916 39.124 44.5312 40.7681 44.5312 42.6814C44.5312 45.1241 45.2363 47.2082 46.6471 48.9336C48.0575 50.6587 50.1986 52.1194 53.0709 53.3152C54.1993 53.7765 55.2508 54.229 56.2252 54.6734C57.1998 55.1175 58.0417 55.5786 58.7513 56.0568C59.4608 56.5351 60.0207 57.0561 60.431 57.6199C60.8413 58.1836 61.0464 58.8243 61.0464 59.5418C61.0464 60.0712 60.9182 60.5625 60.6617 61.0152C60.4055 61.4677 60.0163 61.8607 59.4949 62.1938C58.9736 62.5269 58.3238 62.7873 57.546 62.9752C56.7681 63.1631 55.8576 63.2572 54.8147 63.2572C53.0367 63.2572 51.276 62.9455 49.5321 62.3218C47.788 61.6983 46.1724 60.7632 44.685 59.516ZM31.0181 39.1109H41.5625V32.3594H12.1719V39.1109H22.6648V69.1719H31.0181V39.1109Z" fill="white"/>
</g>
<defs>
<clipPath id="clip0_3_27">
<rect width="76" height="76" fill="white"/>
</clipPath>
</defs>
</svg>
