<svg width="80" height="80" viewBox="0 0 80 80" fill="none" xmlns="http://www.w3.org/2000/svg">
<path d="M40.9746 60.6445C36.4844 60.6445 32.5312 59.6562 29.1152 57.6797C25.7207 55.6816 23.0674 52.8457 21.1553 49.1719C19.2646 45.4766 18.3193 41.1045 18.3193 36.0557C18.3193 30.8564 19.3076 26.4199 21.2842 22.7461C23.2607 19.0508 25.9463 16.2256 29.3408 14.2705C32.7354 12.3154 36.5488 11.3379 40.7812 11.3379C44.4121 11.3379 47.6885 12.0254 50.6104 13.4004C53.5537 14.7754 55.96 16.6768 57.8291 19.1045C59.7197 21.5322 60.8799 24.3359 61.3096 27.5156H51.0293C50.3633 25.2598 49.1709 23.498 47.4521 22.2305C45.7334 20.9414 43.5635 20.2969 40.9424 20.2969C37.2686 20.2969 34.293 21.6611 32.0156 24.3896C29.7383 27.0967 28.5996 30.9531 28.5996 35.959C28.5996 40.9648 29.7168 44.8428 31.9512 47.5928C34.207 50.3213 37.2471 51.6855 41.0713 51.6855C44.4229 51.6855 47.0547 50.8154 48.9668 49.0752C50.9004 47.3135 51.8994 44.9395 51.9639 41.9531H41.6836V34.3154H61.793V40.374C61.793 44.585 60.9014 48.2051 59.1182 51.2344C57.335 54.2637 54.875 56.5947 51.7383 58.2275C48.6016 59.8389 45.0137 60.6445 40.9746 60.6445Z" fill="#E66131"/>
<mask id="mask0_2_45" style="mask-type:alpha" maskUnits="userSpaceOnUse" x="18" y="11" width="44" height="50">
<path d="M40.9746 60.6445C36.4844 60.6445 32.5312 59.6562 29.1152 57.6797C25.7207 55.6816 23.0674 52.8457 21.1553 49.1719C19.2646 45.4766 18.3193 41.1045 18.3193 36.0557C18.3193 30.8564 19.3076 26.4199 21.2842 22.7461C23.2607 19.0508 25.9463 16.2256 29.3408 14.2705C32.7354 12.3154 36.5488 11.3379 40.7812 11.3379C44.4121 11.3379 47.6885 12.0254 50.6104 13.4004C53.5537 14.7754 55.96 16.6768 57.8291 19.1045C59.7197 21.5322 60.8799 24.3359 61.3096 27.5156H51.0293C50.3633 25.2598 49.1709 23.498 47.4521 22.2305C45.7334 20.9414 43.5635 20.2969 40.9424 20.2969C37.2686 20.2969 34.293 21.6611 32.0156 24.3896C29.7383 27.0967 28.5996 30.9531 28.5996 35.959C28.5996 40.9648 29.7168 44.8428 31.9512 47.5928C34.207 50.3213 37.2471 51.6855 41.0713 51.6855C44.4229 51.6855 47.0547 50.8154 48.9668 49.0752C50.9004 47.3135 51.8994 44.9395 51.9639 41.9531H41.6836V34.3154H61.793V40.374C61.793 44.585 60.9014 48.2051 59.1182 51.2344C57.335 54.2637 54.875 56.5947 51.7383 58.2275C48.6016 59.8389 45.0137 60.6445 40.9746 60.6445Z" fill="#E66131"/>
</mask>
<g mask="url(#mask0_2_45)">
<g filter="url(#filter0_f_2_45)">
<circle cx="62" cy="23" r="26" fill="#C013C3"/>
</g>
<g filter="url(#filter1_f_2_45)">
<circle cx="10" cy="21" r="26" fill="#31E3D7"/>
</g>
</g>
<g filter="url(#filter2_d_2_45)">
<circle cx="40" cy="36" r="36" fill="#D9D9D9" fill-opacity="0.15" shape-rendering="crispEdges"/>
</g>
<defs>
<filter id="filter0_f_2_45" x="14.8" y="-24.2" width="94.4" height="94.4" filterUnits="userSpaceOnUse" color-interpolation-filters="sRGB">
<feFlood flood-opacity="0" result="BackgroundImageFix"/>
<feBlend mode="normal" in="SourceGraphic" in2="BackgroundImageFix" result="shape"/>
<feGaussianBlur stdDeviation="10.6" result="effect1_foregroundBlur_2_45"/>
</filter>
<filter id="filter1_f_2_45" x="-37.2" y="-26.2" width="94.4" height="94.4" filterUnits="userSpaceOnUse" color-interpolation-filters="sRGB">
<feFlood flood-opacity="0" result="BackgroundImageFix"/>
<feBlend mode="normal" in="SourceGraphic" in2="BackgroundImageFix" result="shape"/>
<feGaussianBlur stdDeviation="10.6" result="effect1_foregroundBlur_2_45"/>
</filter>
<filter id="filter2_d_2_45" x="0" y="0" width="80" height="80" filterUnits="userSpaceOnUse" color-interpolation-filters="sRGB">
<feFlood flood-opacity="0" result="BackgroundImageFix"/>
<feColorMatrix in="SourceAlpha" type="matrix" values="0 0 0 0 0 0 0 0 0 0 0 0 0 0 0 0 0 0 127 0" result="hardAlpha"/>
<feOffset dy="4"/>
<feGaussianBlur stdDeviation="2"/>
<feComposite in2="hardAlpha" operator="out"/>
<feColorMatrix type="matrix" values="0 0 0 0 0 0 0 0 0 0 0 0 0 0 0 0 0 0 0.25 0"/>
<feBlend mode="normal" in2="BackgroundImageFix" result="effect1_dropShadow_2_45"/>
<feBlend mode="normal" in="SourceGraphic" in2="effect1_dropShadow_2_45" result="shape"/>
</filter>
</defs>
</svg>
